<svg viewBox="0 0 183 82" fill="none" xmlns="http://www.w3.org/2000/svg">
  <path fill-rule="evenodd" clip-rule="evenodd" d="M0.668945 26.215V38.865H37.6719C41.9729 38.865 47.4679 34.888 47.4679 28.309C47.4679 25.663 48.4799 23.937 45.3699 20.437L40.6369 14.829C37.9249 12.299 40.9609 12.299 43.2389 12.299H58.8619V38.865H71.2519V12.299H87.9509V0.921997H33.8769C27.2979 0.921997 24.0809 7.239 24.2619 10.528C24.4439 13.817 25.0489 17.955 30.5159 22.926C35.5029 27.459 28.0469 26.215 27.2979 26.215H0.668945V26.215ZM115.348 0.921997H95.3599L84.1549 38.866H96.6249L98.6479 33.553H111.804L113.757 38.866H125.972L115.348 0.921997V0.921997ZM101.432 24.444L105.733 10.528L109.782 24.444H101.432V24.444ZM165.443 26.215C160.636 26.215 160.636 24.444 160.636 24.444C164.755 24.444 168.407 18.443 168.407 12.299C168.407 6.155 162.407 0.921997 157.598 0.921997H130.707V38.866H144.371V26.216C144.371 26.216 150.189 33.047 153.225 35.83C156.262 38.613 156.514 38.866 160.635 38.866H182.084V26.216C182.086 26.215 170.25 26.215 165.443 26.215V26.215ZM153.045 17.36H144.373V10.528H153.045C157.021 10.528 157.709 17.36 153.045 17.36ZM0.668945 43.672H14.6479L18.1899 56.324L21.4789 43.672H36.1539L39.9489 56.324L43.7449 43.672H55.8889L44.7559 81.625H33.6239L28.7459 63.66L23.2499 81.625H11.8649L0.668945 43.672ZM84.5779 43.891H64.5899L53.3859 81.834H65.8549L67.8789 76.522H81.0359L82.9889 81.834H95.2049L84.5779 43.891ZM70.6629 67.412L74.9639 53.496L79.0119 67.412H70.6629ZM165.695 55.059C163.42 55.059 160.939 55.325 163.652 57.854L168.386 63.463C171.495 66.963 171.445 68.422 171.445 71.07C171.445 77.648 164.937 81.625 160.636 81.625L130.74 81.826C126.621 81.826 126.369 81.574 123.332 78.791C120.297 76.008 114.477 69.176 114.477 69.176V81.826H100.815V43.883H127.706C132.513 43.883 138.515 49.117 138.515 55.26C138.515 61.405 134.863 67.405 130.742 67.405C130.742 67.405 132.554 69.227 135.59 69.227C138.627 69.227 150.317 69.239 150.317 69.239C151.065 69.239 158.52 70.483 153.534 65.95C148.067 60.979 147.462 56.843 147.28 53.554C147.098 50.265 149.942 43.673 156.518 43.673H182.088V55.06H165.695V55.059V55.059ZM123.15 60.32H114.476V53.488H123.15C127.127 53.488 127.814 60.32 123.15 60.32Z" fill="white"/>
</svg>
